<?xml version="1.0" standalone="no"?>
<!DOCTYPE svg PUBLIC "-//W3C//DTD SVG 20010904//EN"
 "http://www.w3.org/TR/2001/REC-SVG-20010904/DTD/svg10.dtd">
<svg version="1.0" xmlns="http://www.w3.org/2000/svg"
 width="700.000000pt" height="700.000000pt" viewBox="0 0 700.000000 700.000000"
 preserveAspectRatio="xMidYMid meet">
<g transform="translate(0.000000,700.000000) scale(0.100000,-0.100000)"
fill="#000000" stroke="none">
<path d="M3652 6925 c-26 -12 -222 -133 -232 -145 -3 -3 -30 -23 -60 -45 -311
-222 -569 -527 -685 -810 -117 -283 -183 -348 -378 -371 -70 -8 -183 -63 -372
-182 -165 -104 -154 -95 -208 -176 -76 -113 -144 -306 -162 -458 -4 -29 -10
-84 -15 -123 -4 -38 -8 -227 -7 -420 2 -451 -5 -517 -72 -775 -50 -190 -108
-346 -310 -831 -181 -436 -222 -558 -260 -789 -12 -71 -7 -370 8 -435 6 -27
13 -61 15 -75 60 -327 319 -706 504 -737 17 -3 25 3 33 24 21 54 17 113 -20
275 -76 331 8 596 311 974 106 132 139 168 462 494 310 313 380 390 529 577
224 283 372 517 562 888 155 304 256 565 281 725 12 83 13 95 14 175 2 164
-24 245 -121 367 -162 204 -299 393 -327 451 -52 107 -56 179 -17 283 69 182
245 393 618 738 142 132 162 161 162 237 0 45 -6 65 -28 98 -47 71 -145 99
-225 66z"/>
<path d="M5556 6434 c-9 -8 -17 -27 -18 -42 0 -15 -2 -34 -2 -42 -2 -22 11
-106 29 -190 29 -133 36 -248 23 -352 -25 -182 -136 -392 -341 -648 -109 -135
-116 -143 -455 -485 -158 -160 -303 -308 -322 -330 -80 -90 -200 -235 -260
-315 -35 -47 -75 -101 -90 -120 -262 -346 -636 -1090 -684 -1360 -2 -14 -7
-36 -10 -50 -12 -54 -17 -108 -16 -185 0 -165 26 -248 106 -348 137 -168 314
-412 342 -470 50 -104 56 -179 20 -275 -70 -186 -249 -402 -621 -746 -142
-132 -162 -161 -162 -237 0 -74 37 -132 102 -161 80 -35 131 -21 297 85 176
111 380 282 521 438 82 90 91 101 177 224 49 71 95 157 135 255 109 264 173
333 333 359 103 17 107 18 183 55 95 46 373 219 398 248 91 108 186 351 205
526 3 30 8 65 12 76 3 12 6 212 7 446 2 434 6 487 47 680 43 202 150 507 293
835 7 17 30 71 50 120 21 50 43 104 51 120 51 115 137 359 163 460 40 157 49
234 46 410 -3 188 -24 312 -77 465 -85 241 -257 479 -395 545 -61 29 -67 30
-87 9z"/>
</g>
</svg>
