<?xml version="1.0" standalone="no"?>
<!DOCTYPE svg PUBLIC "-//W3C//DTD SVG 20010904//EN"
 "http://www.w3.org/TR/2001/REC-SVG-20010904/DTD/svg10.dtd">
<svg version="1.0" xmlns="http://www.w3.org/2000/svg"
 width="512.000000pt" height="512.000000pt" viewBox="0 0 512.000000 512.000000"
 preserveAspectRatio="xMidYMid meet">
<g transform="translate(0.000000,512.000000) scale(0.100000,-0.100000)"
fill="#000000" stroke="none">
<path d="M2625 4952 c-22 -5 -125 -68 -205 -126 -189 -137 -372 -330 -455
-480 -14 -27 -46 -94 -70 -148 -52 -118 -97 -181 -145 -202 -19 -9 -68 -22
-109 -31 -40 -8 -99 -29 -130 -46 -117 -66 -233 -142 -256 -167 -56 -60 -125
-228 -140 -342 -4 -30 -10 -64 -12 -75 -3 -11 -6 -168 -8 -350 -3 -345 -7
-388 -56 -560 -24 -86 -131 -372 -194 -520 -105 -248 -178 -446 -189 -513 -21
-123 -27 -178 -25 -261 2 -181 53 -363 143 -515 76 -129 218 -248 253 -214 23
24 23 76 -1 194 -50 245 -13 391 158 629 28 39 53 72 56 75 3 3 23 28 45 55
21 28 146 158 276 290 130 132 252 258 270 280 19 22 39 45 45 50 6 6 39 46
73 90 35 44 68 87 74 95 14 17 128 186 162 240 87 136 247 450 301 591 85 221
101 406 46 539 -6 14 -65 95 -132 180 -194 249 -218 322 -151 460 53 109 125
195 327 395 105 105 197 200 203 212 25 50 0 137 -47 162 -24 13 -79 19 -107
13z"/>
<path d="M3965 4591 c-15 -47 -14 -72 6 -171 49 -237 23 -377 -108 -575 -92
-140 -182 -245 -410 -475 -251 -254 -298 -305 -401 -434 -60 -74 -205 -282
-259 -371 -61 -100 -183 -336 -243 -470 -137 -305 -153 -542 -44 -683 238
-307 273 -363 279 -443 4 -51 -18 -117 -66 -196 -61 -101 -133 -183 -312 -356
-93 -89 -175 -174 -183 -189 -43 -83 13 -176 111 -183 26 -2 121 36 135 54 3
4 29 22 58 40 172 109 354 285 466 449 25 37 72 127 104 199 86 190 116 220
243 243 35 7 80 18 99 26 56 24 279 164 305 192 33 36 79 124 104 202 45 137
53 217 56 560 2 179 5 335 8 346 3 12 8 39 11 60 22 141 88 337 216 644 193
463 217 541 227 746 4 100 2 152 -11 222 -32 175 -99 329 -191 442 -60 73 -81
92 -122 113 -54 28 -71 29 -78 8z"/>
</g>
</svg>
