<?xml version="1.0" standalone="no"?>
<!DOCTYPE svg PUBLIC "-//W3C//DTD SVG 20010904//EN"
 "http://www.w3.org/TR/2001/REC-SVG-20010904/DTD/svg10.dtd">
<svg version="1.0" xmlns="http://www.w3.org/2000/svg"
 width="144.000000pt" height="144.000000pt" viewBox="0 0 144.000000 144.000000"
 preserveAspectRatio="xMidYMid meet">
<g transform="translate(0.000000,144.000000) scale(0.100000,-0.100000)"
fill="#000000" stroke="none">
<path d="M1163 1422 c-27 -3 -33 -8 -33 -27 0 -29 17 -35 48 -19 24 12 28 12
73 0 21 -6 29 -17 39 -54 7 -26 14 -52 16 -59 2 -7 -1 -15 -7 -18 -5 -4 -7
-11 -3 -16 5 -9 -39 -70 -51 -70 -6 0 -30 -7 -67 -21 -14 -5 -46 -9 -70 -7
-54 3 -88 -8 -88 -28 0 -9 -3 -14 -6 -10 -10 9 -57 -18 -96 -56 -32 -31 -98
-119 -98 -131 0 -5 -21 -51 -104 -230 -50 -107 -112 -204 -154 -243 -33 -29
-115 -73 -151 -80 -62 -13 -159 -5 -198 15 -10 6 -22 10 -28 11 -5 1 -31 8
-56 16 -44 15 -85 15 -109 0 -16 -10 -12 -68 7 -95 23 -35 93 -111 93 -102 0
4 5 -1 11 -11 24 -41 184 -127 264 -141 13 -3 28 -7 32 -9 29 -18 253 -28 323
-15 77 15 95 20 136 38 24 11 45 20 48 20 7 0 104 59 131 80 46 35 147 144
183 198 51 74 105 183 132 263 28 82 31 99 34 184 2 39 6 78 10 87 5 11 0 30
-13 52 -39 62 -55 134 -55 251 -1 121 -13 162 -63 205 -28 25 -55 29 -130 22z"/>
</g>
</svg>
