<?xml version="1.0" encoding="UTF-8" standalone="no"?>
<svg version="1.1" xml:space="preserve" width="500" height="500" viewBox="0 0 500 500"
  xmlns:dc="http://purl.org/dc/elements/1.1/"
  xmlns:cc="http://creativecommons.org/ns#"
  xmlns:rdf="http://www.w3.org/1999/02/22-rdf-syntax-ns#"
  xmlns:svg="http://www.w3.org/2000/svg"
  xmlns="http://www.w3.org/2000/svg">
  <rect width="500" height="500" fill="#f3eed9" />
  <g transform="matrix(1.3333333,0,0,-1.3333333,0,500.00001)">
    <g transform="matrix(0.09999996,0,0,0.1,47.092486,3.179602)">
      <path d="m 1081.73,1637.18 c 91.51,129.73 167.48,264.01 240.11,412.47 54.79,112.01 112.03,241.16 127.97,365.25 9.26,72.13 4.37,143.81 -24.08,210.84 -532.257,-289.21 -833.585,13.5 -945.164,170.36 -178.718,-208.57 -122,-579.63 -128.824,-706.53 C 357.836,1846.75 247.676,1597.88 155.035,1377.73 108.672,1267.57 64.2188,1161.92 36.0313,1068.92 -54.7422,769.375 40.8008,502.559 158.648,359.648 c 28.469,-34.523 57.692,-60.976 85.122,-77.949 20.781,-12.863 38.218,-19.277 50.414,-18.164 5.875,0.535 11.57,7.938 16.203,23.477 9.023,30.215 0.586,68.504 -8.867,111.336 -24.446,110.863 -53.762,243.847 86.136,447.738 103.782,151.25 193.645,239.314 335.961,378.734 -0.148,0.15 17.664,16.98 19.332,18.62 137.746,135.04 246.5,262.89 338.781,393.74" style="fill:#df1f26;fill-opacity:1;fill-rule:evenodd;stroke:none" />
      <path d="m 915.441,1755.44 c 74.903,134.19 139.169,271.6 202.179,422.64 46.11,110.51 95.1,236.97 117.18,356.44 -320.425,-102.9 -600.175,50.23 -712.187,191.6 -81.359,-212.6 -75.703,-480.66 -88.066,-585.03 -14.731,-237.24 -112.164,-489.52 -194.961,-712.3 -41.43,-111.5 -81.156,-218.4 -108.395,-311.66 -87.6949,-300.364 -41.0347,-554.095 31.118,-684.755 17.433,-31.566 36.031,-55.18 54.109,-69.633 13.68,-10.965 25.516,-15.879 34.23,-13.824 4.196,0.973 8.805,8.668 13.301,24.246 8.75,30.281 5.781,67.109 2.461,108.301 -8.597,106.621 -18.91,234.5 96.035,445.086 85.27,156.199 155.743,249.469 267.344,397.119 -0.09,0.14 13.824,18.01 15.133,19.74 108.023,143.01 194.98,276.7 270.519,412.03" style="fill:#ca1e25;fill-opacity:1;fill-rule:evenodd;stroke:none" />
      <path d="M 1541.1,3469.66 Z M 480.566,2796.1 c 69.778,-176.89 492.629,-460.94 945.164,-170.35 -26.55,26.7 -146.04,184.05 -179.52,231.34 -40.69,57.46 -69.07,121.93 -53.65,180.65 38.55,146.85 218.28,311.92 347.82,430.9 l -0.19,0.21 0.9,0.81 0.26,0.23 0.47,0.4 0.97,0.82 0.29,0.25 0.97,0.78 0.62,0.49 0.27,0.21 c 17.45,16.05 6.91,6.54 10.6,9.87 43.31,39.04 87.87,79.21 57.94,148.18 -1.68,3.88 -3.31,7.15 -4.87,9.79 -11.33,19.16 -29.82,33.63 -51.57,40.82 -22.13,7.31 -47.73,6.84 -72.88,-4.07 -5.08,-2.21 -9.7,-4.52 -13.77,-6.93 -116.39,-68.8 -229.7,-154.51 -323.31,-252.52 -81.08,-84.89 -146.97,-178.53 -186.373,-277.57 -24.082,-60.51 -43.469,-100.09 -62.969,-127.73 -26.164,-37.08 -52.258,-54.47 -84.746,-64.94 -29.648,-9.56 -61.074,-10.98 -91.551,-17.03 -51.464,-10.22 -202.464,-113.36 -240.875,-134.61" style="fill:#42af3b;fill-opacity:1;fill-rule:evenodd;stroke:none" />
      <path d="M 1520.86,3455.52 Z M 505.684,2810.77 c 66.789,-169.34 471.554,-441.24 904.746,-163.07 -25.41,25.55 -139.79,176.18 -171.84,221.44 -38.96,55.02 -66.13,116.72 -51.37,172.93 36.91,140.57 208.95,298.58 332.95,412.47 l -0.17,0.21 0.86,0.77 0.25,0.22 0.44,0.38 0.93,0.79 0.28,0.23 0.92,0.75 0.6,0.47 0.26,0.2 c 16.69,15.36 6.61,6.26 10.15,9.45 41.46,37.37 84.11,75.83 55.46,141.84 -1.61,3.72 -3.17,6.85 -4.67,9.37 -10.84,18.35 -28.53,32.2 -49.36,39.08 -21.19,7 -45.69,6.55 -69.77,-3.9 -4.86,-2.11 -9.28,-4.33 -13.18,-6.63 -111.41,-65.86 -219.87,-147.9 -309.48,-241.72 -77.61,-81.26 -140.68,-170.9 -178.401,-265.69 -23.051,-57.94 -41.613,-95.82 -60.273,-122.27 -25.051,-35.5 -50.024,-52.15 -81.118,-62.17 -28.39,-9.15 -58.472,-10.51 -87.644,-16.31 -49.266,-9.78 -193.809,-108.51 -230.57,-128.84" style="fill:#3c9d3b;fill-opacity:1;fill-rule:evenodd;stroke:none" />
      <path d="m 1726.41,2049.24 c -91.51,-129.74 -167.48,-264.02 -240.11,-412.48 -54.78,-112.01 -112.03,-241.15 -127.96,-365.25 -9.27,-72.13 -4.38,-143.8 24.07,-210.85 532.26,289.22 833.58,-13.49 945.16,-170.347 178.72,208.577 122,579.627 128.83,706.527 -6.09,242.83 104.06,491.7 196.71,711.84 46.36,110.17 90.81,215.81 119,308.82 90.78,299.54 -4.77,566.36 -122.62,709.26 -28.47,34.53 -57.69,60.98 -85.12,77.95 -20.78,12.86 -38.21,19.28 -50.41,18.17 -5.88,-0.54 -11.57,-7.94 -16.21,-23.48 -9.02,-30.21 -0.58,-68.5 8.87,-111.33 24.45,-110.87 53.77,-243.85 -86.14,-447.75 -103.78,-151.24 -193.64,-239.3 -335.95,-378.73 0.14,-0.15 -17.67,-16.98 -19.34,-18.61 -137.74,-135.05 -246.49,-262.9 -338.78,-393.74" style="fill:#df1f26;fill-opacity:1;fill-rule:evenodd;stroke:none" />
      <path d="m 1892.7,1930.97 c -74.9,-134.18 -139.17,-271.59 -202.19,-422.64 -46.09,-110.5 -95.08,-236.96 -117.17,-356.44 320.43,102.9 600.18,-50.23 712.19,-191.597 81.36,212.597 75.7,480.667 88.07,585.027 14.72,237.24 112.16,489.52 194.96,712.31 41.42,111.49 81.15,218.39 108.39,311.66 87.69,300.36 41.03,554.09 -31.13,684.75 -17.42,31.56 -36.02,55.17 -54.1,69.63 -13.68,10.96 -25.51,15.88 -34.22,13.83 -4.2,-0.98 -8.81,-8.68 -13.3,-24.25 -8.75,-30.29 -5.8,-67.11 -2.47,-108.3 8.6,-106.62 18.91,-234.5 -96.03,-445.09 -85.27,-156.21 -155.74,-249.47 -267.34,-397.12 0.08,-0.14 -13.83,-18.01 -15.14,-19.74 -108.02,-143.01 -194.98,-276.7 -270.52,-412.03" style="fill:#ca1e25;fill-opacity:1;fill-rule:evenodd;stroke:none" />
      <path d="m 1267.05,216.758 z m 1060.52,673.555 c -69.77,176.897 -492.62,460.947 -945.16,170.347 26.55,-26.7 146.03,-184.058 179.52,-231.336 40.69,-57.469 69.07,-121.933 53.65,-180.652 C 1577.04,501.824 1397.3,336.75 1267.76,217.773 l 0.19,-0.214 -0.9,-0.809 -0.26,-0.227 -0.47,-0.41 -0.96,-0.82 -0.3,-0.234 -0.96,-0.782 -0.63,-0.488 -0.27,-0.215 c -17.44,-16.047 -6.91,-6.543 -10.6,-9.875 -43.31,-39.043 -87.87,-79.207 -57.94,-148.1717 1.68,-3.8867 3.31,-7.1484 4.88,-9.7968 11.32,-19.1602 29.8,-33.6328 51.57,-40.82034 22.13,-7.3125 47.72,-6.84375 72.87,4.07422 5.09,2.20702 9.71,4.51952 13.77,6.93362 116.39,68.789 229.7,154.5 323.31,252.52 81.08,84.882 146.97,178.523 186.38,277.558 24.08,60.516 43.46,100.098 62.97,127.723 26.16,37.09 52.25,54.484 84.73,64.953 29.66,9.558 61.09,10.976 91.56,17.031 51.47,10.215 202.46,113.36 240.87,134.61" style="fill:#42af3b;fill-opacity:1;fill-rule:evenodd;stroke:none" />
      <path d="m 1287.29,230.898 z m 1015.17,644.747 c -66.79,169.335 -471.56,441.235 -904.75,163.075 25.41,-25.56 139.79,-176.193 171.84,-221.447 38.96,-55.019 66.13,-116.726 51.37,-172.929 -36.9,-140.567 -208.94,-298.582 -332.95,-412.481 l 0.18,-0.195 -0.86,-0.781 -0.25,-0.215 -0.45,-0.391 -0.93,-0.781 -0.28,-0.234 -0.92,-0.743 -0.6,-0.476 -0.26,-0.195 c -16.69,-15.364 -6.61,-6.262 -10.15,-9.454 -41.46,-37.375 -84.11,-75.82 -55.46,-141.8355 1.62,-3.7227 3.18,-6.8477 4.67,-9.375 10.84,-18.3398 28.53,-32.1992 49.37,-39.0742 21.18,-7 45.68,-6.5508 69.75,3.8984 4.87,2.1094 9.29,4.3242 13.19,6.6289 111.41,65.8594 219.88,147.9024 309.48,241.7184 77.62,81.262 140.68,170.899 178.41,265.696 23.04,57.937 41.61,95.82 60.27,122.277 25.05,35.496 50.02,52.137 81.11,62.168 28.39,9.137 58.48,10.504 87.64,16.297 49.28,9.785 193.82,108.516 230.58,128.848" style="fill:#3c9d3b;fill-opacity:1;fill-rule:evenodd;stroke:none" />
    </g>
  </g>
</svg>